ply
format ascii 1.0
comment VCGLIB generated
element vertex 8
property float x
property float y
property float z
property float nx
property float ny
property float nz
property uchar red
property uchar green
property uchar blue
property uchar alpha
element face 12
property list uchar int vertex_indices
end_header
0.5 0.5 0.5 0.57735 0.57735 0.57735 254 0 0 255 
-0.5 0.5 0.5 -0.333333 0.666667 0.666667 255 255 0 255 
0.5 -0.5 0.5 0.666667 -0.333333 0.666667 0 255 0 255 
-0.5 -0.5 0.5 -0.666667 -0.666667 0.333333 254 0 200 255 
0.5 0.5 -0.5 0.666667 0.666667 -0.333333 0 0 255 255 
-0.5 0.5 -0.5 -0.666667 0.333333 -0.666667 0 0 0 255 
0.5 -0.5 -0.5 0.333333 -0.666667 -0.666667 254 100 1 255 
-0.5 -0.5 -0.5 -0.57735 -0.57735 -0.57735 254 0 100 255 
3 0 1 2 
3 3 2 1 
3 0 2 4 
3 6 4 2 
3 0 4 1 
3 5 1 4 
3 7 5 6 
3 4 6 5 
3 7 6 3 
3 2 3 6 
3 7 3 5 
3 1 5 3 
